<svg width="45" height="47" viewBox="0 0 45 47" fill="none" xmlns="http://www.w3.org/2000/svg">
<path d="M11.2564 21.8959C10.6129 22.1517 9.85089 22.4619 9.14923 22.4574C8.54814 22.4529 7.93587 21.8597 7.52024 21.4747C7.03311 21.0242 6.55044 20.5374 5.93594 20.2951C5.32143 20.0528 4.52593 20.1298 4.13041 20.6664C3.83098 21.074 3.83545 21.6264 3.90249 22.1291C4.15276 23.9789 5.04211 25.6363 6.75379 26.4673C8.01855 27.0808 9.40621 26.8952 10.5682 26.1344C11.0933 25.7903 11.4553 25.2152 11.9491 24.837C12.5391 24.3842 13.2988 24.2257 13.7614 23.5759C14.139 23.0483 14.1949 22.2355 13.7278 21.7872C13.4575 21.5291 13.0664 21.4363 12.6955 21.4612C12.3245 21.4861 11.9692 21.6151 11.6251 21.751C11.5022 21.7985 11.3793 21.8461 11.2564 21.8959Z" fill="#023E8A"/>
<path d="M22.0433 9.30974C22.0433 9.30974 24.1282 9.71277 25.2209 9.94824C26.3136 10.1815 26.6912 11.0033 25.7259 11.54C24.7606 12.0766 22.2802 13.2358 22.2802 13.2358C22.2802 13.2358 21.9383 13.6479 21.5048 11.2434C21.1718 9.3822 20.9864 9.24182 22.0433 9.30974Z" fill="#023E8A"/>
<path d="M29.9822 30.8427C29.9822 30.8427 30.4336 29.6201 30.6838 28.9816C30.9341 28.3431 31.276 28.0759 31.6849 28.7846C32.0112 29.3484 32.6212 30.9401 32.6212 30.9401C32.6212 30.9401 32.5631 31.1914 31.0816 31.2933C29.9375 31.3703 29.8325 31.4722 29.9822 30.8427Z" fill="#023E8A"/>
<path d="M35.2669 30.6952C35.2669 30.6952 35.497 28.9359 35.6356 28.0121C35.7763 27.0861 36.1473 26.6287 36.9026 27.4393C37.5059 28.0846 38.7908 30.0046 38.7908 30.0046C38.7908 30.0046 38.7885 30.3578 36.8579 30.9487C35.3674 31.4084 35.2602 31.5759 35.2669 30.6952Z" fill="#023E8A"/>
<path d="M39.9112 28.6556C39.9112 28.6556 39.909 27.091 39.9247 26.2646C39.9403 25.4405 40.2129 24.9944 40.966 25.6148C41.5671 26.1084 42.9145 27.6344 42.9145 27.6344C42.9145 27.6344 42.9525 27.9446 41.3324 28.6896C40.0788 29.2669 40.0051 29.4254 39.9112 28.6556Z" fill="#023E8A"/>
<path d="M23.0221 14.3494C23.0221 14.3494 25.174 14.5374 26.1997 14.9857C27.3035 15.4702 27.5292 16.1608 26.2734 16.8061C25.2924 17.3132 23.259 18.2732 23.259 18.2732C23.259 18.2732 22.9171 18.6853 22.4858 16.2808C22.1484 14.4219 21.9629 14.2792 23.0221 14.3494Z" fill="#023E8A"/>
<path d="M23.8173 26.0486C23.8173 26.0486 25.9692 26.2366 26.9949 26.6849C28.0988 27.1694 28.3222 27.86 27.0686 28.5053C26.0876 29.0125 24.0542 29.9725 24.0542 29.9725C24.0542 29.9725 23.7145 30.3845 23.281 27.98C22.9459 26.1211 22.7604 25.9785 23.8173 26.0486Z" fill="#023E8A"/>
<path d="M23.7093 20.1244C23.7093 20.1244 28.9046 21.4444 27.5416 22.7146C26.8779 23.3328 23.5037 24.1637 23.5037 24.1637C23.5037 24.1637 23.5462 24.2316 23.1909 22.2595C22.9183 20.7335 22.8423 20.0678 23.7093 20.1244Z" fill="#023E8A"/>
<path d="M41.1524 26.7706C37.7849 29.7276 29.5908 31.0929 25.8859 30.6944C25.8859 28.9895 25.0435 11.1319 23.2469 7.37787C23.2469 7.37787 15.5578 3.51066 7.1938 2.77253C6.24187 1.63365 5.34358 0.381562 3.82855 1.51818C2.31352 2.65706 -0.774643 10.9598 0.179514 13.1787C1.13367 15.3976 11.9087 18.6376 11.9087 18.6376C11.9087 18.6376 9.49539 27.2823 8.70883 33.5382C7.92226 39.7941 9.27194 45.9164 9.27194 45.9164C9.27194 45.9164 9.38366 47.0553 11.5177 46.9987C13.6494 46.9399 13.8193 45.8032 13.8193 45.8032L12.6372 42.6153H22.1855C22.1989 42.8394 22.2257 43.0591 22.2391 43.2492C22.2994 44.0485 22.4156 44.8455 22.5854 45.6289C22.6368 45.8689 22.7061 46.127 22.896 46.2787C23.0435 46.3965 23.2402 46.4282 23.4256 46.4531C24.5898 46.6048 25.8457 46.6115 26.849 45.9957C26.9585 45.93 27.0657 45.8508 27.1305 45.7398C27.2289 45.5723 27.2065 45.3617 27.1819 45.167C27.1439 44.8659 27.1037 44.567 27.0657 44.2659C27.0032 43.7881 26.9428 43.3126 26.8803 42.8349C26.8736 42.7783 26.8646 42.7217 26.8579 42.6674C26.8602 42.6674 26.8624 42.6674 26.8646 42.6674L26.7685 41.5421C26.7663 41.5081 26.7641 41.4741 26.7618 41.4402C26.7596 41.3971 26.7551 41.3564 26.7484 41.3156L26.668 40.3647C27.8456 40.4779 32.5605 40.3081 36.1537 37.976C39.7446 35.6439 42.6652 31.4348 44.1802 28.763C45.6997 26.089 44.5199 23.8135 41.1524 26.7706Z" fill="#48CAE4"/>
<path d="M13.3672 8.64708C13.3672 8.22142 13.7091 7.875 14.1292 7.875C14.5493 7.875 14.8912 8.22142 14.8912 8.64708C14.8912 9.07275 14.5493 9.41917 14.1292 9.41917C13.7091 9.41917 13.3672 9.07275 13.3672 8.64708Z" fill="#023E8A"/>
<path d="M17.1104 9.5963C17.1104 9.17064 17.4522 8.82422 17.8723 8.82422C18.2924 8.82422 18.6343 9.17064 18.6343 9.5963C18.6343 10.022 18.2924 10.3684 17.8723 10.3684C17.45 10.3684 17.1104 10.022 17.1104 9.5963Z" fill="#023E8A"/>
<path d="M27.6054 6.51277C26.9373 6.54673 25.5161 6.83654 23.4 6.50597C23.4961 4.88482 23.3531 1.26214 20.323 0.32477C19.6392 0.114201 18.9264 -0.0125925 18.2091 0.000992521C17.6326 0.0123134 17.0605 0.116466 16.5198 0.320242C16.055 0.496847 15.6193 0.743643 15.226 1.04704C14.8841 1.31195 14.5735 1.61535 14.2964 1.94819C14.0774 2.21309 13.8785 2.49385 13.702 2.79046C13.6662 2.85159 13.6305 2.91499 13.5947 2.97612C13.5791 3.00329 13.5657 3.03273 13.55 3.0599C13.4987 3.14594 13.4629 3.07575 13.3869 3.04405C13.3445 3.02593 13.2953 3.02141 13.2551 3.04178C13.2082 3.06442 13.1836 3.1165 13.1635 3.16631C13.1076 3.30443 13.0897 3.44934 13.0495 3.58971C13.016 3.70972 13.0048 3.84783 13.1009 3.94519C13.3735 4.22142 17.3935 5.98295 18.6538 6.43126C19.9141 6.87956 21.9252 7.4841 23.219 7.58825C24.5128 7.6924 27.9719 7.83052 28.1417 7.31202C28.3115 6.79805 28.287 6.4788 27.6054 6.51277Z" fill="#023E8A"/>
<path d="M19.4327 23.4232C19.4394 23.3938 19.4461 23.3666 19.4551 23.3372C19.4774 23.2624 19.5333 23.19 19.5758 23.1243C19.6316 23.036 19.6964 22.9522 19.7657 22.8753C19.9288 22.6941 20.1322 22.547 20.3713 22.4858C20.6863 22.4066 21.0059 22.4994 21.2807 22.6602C22.7578 23.5228 23.5287 31.0874 22.731 33.6573C21.9332 36.2271 19.4439 35.6882 19.111 33.6505C19.111 33.646 19.1087 33.6392 19.1087 33.6346C19.0842 33.4852 19.0707 33.3335 19.0573 33.1818C19.0417 32.9893 19.0328 32.7992 19.0261 32.6067C19.0193 32.3825 19.0149 32.1561 19.0126 31.9297C19.0104 31.6784 19.0126 31.4248 19.0149 31.1735C19.0193 30.9018 19.0238 30.6301 19.0305 30.3584C19.0372 30.0731 19.0484 29.7901 19.0573 29.5048C19.0685 29.215 19.0797 28.9229 19.0931 28.6331C19.1065 28.3433 19.1199 28.0534 19.1355 27.7659C19.1512 27.4851 19.1646 27.2021 19.1825 26.9214C19.1981 26.6542 19.2138 26.387 19.2294 26.1221C19.245 25.8776 19.2607 25.633 19.2763 25.3885C19.2897 25.1711 19.3054 24.956 19.321 24.7409C19.3344 24.5598 19.3456 24.3787 19.359 24.1998C19.3679 24.0617 19.3791 23.9236 19.3903 23.7855C19.397 23.6609 19.4059 23.5409 19.4327 23.4232Z" fill="#023E8A"/>
<path d="M11.8704 14.1215C12.0715 13.8973 12.0558 13.5509 11.8368 13.3471C11.6179 13.1433 11.2737 13.1569 11.0726 13.3811C11.0614 13.3924 9.94194 14.6037 7.70961 15.4324C6.23927 15.9781 4.65944 15.7743 4.62815 15.7698C4.50749 15.7539 4.39129 15.7811 4.29297 15.8354C5.05495 16.1796 5.87951 16.5147 6.67948 16.8158C7.12862 16.7502 7.60682 16.6392 8.08278 16.4626C10.5788 15.532 11.819 14.1758 11.8704 14.1215Z" fill="#023E8A"/>
</svg>
